HIERARCHY
ROOT Hips
{
	OFFSET 0.000000 0.000000 0.000000 
	CHANNELS 6 Xposition Yposition Zposition Zrotation Yrotation Xrotation
	JOINT LeftUpLeg
	{
		OFFSET 1.363060 -1.794630 0.839290 
		CHANNELS 3 Zrotation Yrotation Xrotation
		JOINT LeftLeg
		{
			OFFSET 2.448110 -6.726130 0.000000 
			CHANNELS 3 Zrotation Yrotation Xrotation
			JOINT LeftFoot
			{
				OFFSET 2.562200 -7.039590 0.000000 
				CHANNELS 3 Zrotation Yrotation Xrotation
				JOINT LeftToeBase
				{
					OFFSET 0.157640 -0.433110 2.322550 
					CHANNELS 3 Zrotation Yrotation Xrotation
					End Site
					{
						OFFSET 0.000000 0.000000 0.000000 
					}
				}
			}
		}
	}
	JOINT RightUpLeg
	{
		OFFSET -1.305520 -1.794630 0.839290 
		CHANNELS 3 Zrotation Yrotation Xrotation
		JOINT RightLeg
		{
			OFFSET -2.542530 -6.985550 0.000000 
			CHANNELS 3 Zrotation Yrotation Xrotation
			JOINT RightFoot
			{
				OFFSET -2.568260 -7.056230 0.000000 
				CHANNELS 3 Zrotation Yrotation Xrotation
				JOINT RightToeBase
				{
					OFFSET -0.164730 -0.452590 2.363150 
					CHANNELS 3 Zrotation Yrotation Xrotation
					End Site
					{
						OFFSET 0.000000 0.000000 0.000000 
					}
				}
			}
		}
	}
	JOINT Spine
	{
		OFFSET 0.028270 2.035590 -0.193380 
		CHANNELS 3 Zrotation Yrotation Xrotation
		JOINT Spine1
		{
			OFFSET 0.056720 2.048850 -0.042750 
			CHANNELS 3 Zrotation Yrotation Xrotation
			JOINT Neck1
			{
				OFFSET -0.054170 1.746240 0.172020 
				CHANNELS 3 Zrotation Yrotation Xrotation
				JOINT Head
				{
					OFFSET 0.104070 1.761360 -0.123970 
					CHANNELS 3 Zrotation Yrotation Xrotation
					End Site
					{
						OFFSET 0.000000 0.000000 0.000000 
					}
				}
			}
			JOINT LeftArm
			{
				OFFSET 3.362410 1.200890 -0.311210 
				CHANNELS 3 Zrotation Yrotation Xrotation
				JOINT LeftForeArm
				{
					OFFSET 4.983000 -0.000000 -0.000000 
					CHANNELS 3 Zrotation Yrotation Xrotation
					JOINT LeftHand
					{
						OFFSET 3.483560 -0.000000 -0.000000 
						CHANNELS 3 Zrotation Yrotation Xrotation
						JOINT LeftHandIndex1
						{
							OFFSET 0.715260 -0.000000 -0.000000 
							CHANNELS 3 Zrotation Yrotation Xrotation
							End Site
							{
								OFFSET 0.000000 0.000000 0.000000 
							}
						}
					}
				}
			}
			JOINT RightArm
			{
				OFFSET -3.136600 1.374050 -0.404650 
				CHANNELS 3 Zrotation Yrotation Xrotation
				JOINT RightForeArm
				{
					OFFSET -5.241900 -0.000000 -0.000000 
					CHANNELS 3 Zrotation Yrotation Xrotation
					JOINT RightHand
					{
						OFFSET -3.444170 -0.000000 -0.000000 
						CHANNELS 3 Zrotation Yrotation Xrotation
						JOINT RightHandIndex1
						{
							OFFSET -0.622530 -0.000000 -0.000000 
							CHANNELS 3 Zrotation Yrotation Xrotation
							End Site
							{
								OFFSET 0.000000 0.000000 0.000000 
							}
						}
					}
				}
			}
		}
	}
}
MOTION
Frames: 12
Frame Time: 0.041667
-15.364965 17.861812 0.325367 -109.344384 86.193694 -93.713086 -16.241132 -2.158916 -14.420843 0.045190 2.737232 10.363261 0.039206 1.379438 -6.988935 0.072400 -1.736100 -4.777000 30.134367 11.322138 -10.877088 -0.591740 -2.908465 12.337753 0.109747 -5.689254 -13.255579 -0.258200 -3.269300 9.029500 1.418202 0.828029 -5.810675 -5.808259 0.008808 1.693449 -0.168569 -10.967633 20.544054 -2.259200 -4.966600 8.335100 -80.285523 -2.216668 30.520070 10.377244 -20.091256 -5.191572 -3.029767 0.156224 0.016000 -7.125000 0.000000 0.000000 89.725726 -2.394157 14.728164 -13.596625 28.535935 -4.234265 -1.481352 -2.194589 29.122785 7.125000 0.000000 0.000000 
-15.363140 17.867187 0.327902 -111.172263 86.119224 -95.362396 -16.137310 -2.215316 -14.637864 0.051422 2.760501 10.429116 0.053384 1.307132 -6.990063 0.070300 -1.710700 -4.706700 30.216059 11.353748 -11.107533 -0.611337 -2.922872 12.351705 0.069310 -5.277674 -13.063859 -0.257300 -3.263700 9.013800 1.473831 0.728493 -5.828530 -5.698562 -0.032679 1.751887 1.650837 -10.713476 19.908902 -1.358300 -4.801100 8.067600 -80.404988 -2.162078 30.488113 10.436819 -20.152889 -5.204456 -3.025505 0.153825 -0.147740 -7.125000 0.000000 0.000000 89.609640 -2.510394 14.967957 -13.628154 28.578236 -4.274588 -1.497395 -2.200746 29.035222 7.125000 0.000000 0.000000 
-15.361213 17.872055 0.330337 -112.077151 86.036361 -96.068530 -16.038223 -2.262504 -14.880125 0.055886 2.787314 10.493220 0.060977 1.270771 -6.988776 0.071500 -1.724600 -4.745000 30.299189 11.513150 -11.318920 -0.628353 -2.939655 12.377044 0.025031 -4.895511 -12.984759 -0.311300 -3.587000 9.917700 1.495592 0.691406 -5.855866 -5.683008 -0.044241 1.795033 3.378855 -10.620514 19.246101 -0.549600 -4.713400 7.778800 -80.452125 -2.109019 30.387831 10.405903 -20.124128 -5.195488 -3.021065 0.164217 -0.047361 -7.125000 0.000000 0.000000 89.675039 -2.620845 14.907354 -13.679153 28.645935 -4.321037 -1.509551 -2.210532 29.129560 7.125000 0.000000 0.000000 
-15.364255 17.874692 0.327700 -109.874263 85.976046 -93.706879 -15.990712 -2.319711 -15.075682 0.053016 2.814901 10.529321 0.046115 1.361492 -7.002218 0.069200 -1.696700 -4.668200 30.335601 11.667201 -11.540411 -0.660146 -2.975475 12.475393 -0.024959 -4.412306 -12.815012 -0.373200 -3.923600 10.861900 1.473845 0.769916 -5.884815 -5.806654 0.002537 1.772565 3.966288 -10.650990 18.925654 -0.291900 -4.713000 7.618100 -80.445946 -2.090158 30.208846 10.327607 -20.045473 -5.182028 -3.019113 0.173872 0.206092 -7.125000 0.000000 0.000000 89.845474 -2.656319 14.708886 -13.687354 28.650359 -4.291232 -1.469941 -2.243532 29.376113 7.125000 0.000000 0.000000 
-15.363545 17.876619 0.329221 -109.561150 85.878364 -93.325068 -15.867355 -2.465039 -15.159209 0.054524 2.859265 10.634283 0.027899 1.488783 -7.084783 0.069800 -1.704700 -4.690400 30.458349 11.576126 -11.692827 -0.685368 -2.996528 12.535479 -0.081127 -3.923433 -12.736565 -0.440100 -4.257000 11.800800 1.484237 0.780088 -5.894166 -5.849072 0.010624 1.793408 3.879248 -10.635267 18.904759 -0.329800 -4.708100 7.584800 -80.460760 -2.075345 30.163605 10.293338 -20.014380 -5.176905 -3.019215 0.173553 0.311798 -7.125000 0.000000 0.000000 89.891039 -2.700707 14.832089 -13.700398 28.663506 -4.262823 -1.430411 -2.277361 29.018674 7.125000 0.000000 0.000000 
-15.359793 17.878749 0.334292 -110.765916 85.790462 -94.526588 -15.734457 -2.661803 -15.162258 0.058591 2.917522 10.797928 0.003457 1.676146 -7.268331 0.084200 -1.871800 -5.151400 30.589114 11.385580 -11.757764 -0.725563 -3.001055 12.555819 -0.196221 -2.941518 -12.649633 -0.735500 -5.478900 15.279600 1.511505 0.740137 -5.879078 -5.819313 -0.008903 1.875157 3.568197 -10.608647 18.811663 -0.468700 -4.709400 7.505600 -80.489566 -2.078518 30.225652 10.295783 -20.022863 -5.181409 -3.020309 0.165613 0.340065 -7.125000 0.000000 0.000000 89.794855 -2.748857 15.380819 -13.693039 28.699287 -4.277975 -1.443027 -2.283782 27.899469 7.125000 0.000000 0.000000 
-15.356649 17.879561 0.338653 -111.569859 85.695073 -95.317509 -15.605236 -2.742268 -15.192349 0.063073 2.958208 10.908315 -0.007095 1.758069 -7.346500 0.102800 -2.067900 -5.693200 30.739706 11.233392 -11.827921 -0.725596 -3.013780 12.588632 -0.198182 -2.954778 -12.695117 -0.761200 -5.571900 15.547100 1.523002 0.718180 -5.860807 -5.856427 -0.020089 1.963266 3.381868 -10.607653 18.765513 -0.557400 -4.714800 7.460600 -80.484343 -2.082844 30.261734 10.318905 -20.051446 -5.197851 -3.019712 0.155362 0.362044 -7.125000 0.000000 0.000000 89.791166 -2.771966 15.783922 -13.699719 28.751744 -4.295328 -1.458944 -2.283544 27.061583 7.125000 0.000000 0.000000 
-15.356142 17.880676 0.339972 -111.761058 85.656879 -95.493508 -15.551469 -2.782321 -15.200629 0.069496 2.979765 10.966907 -0.006670 1.740367 -7.289590 0.101900 -2.058100 -5.666200 30.792838 11.281203 -11.846079 -0.724217 -3.023886 12.614494 -0.193647 -3.016714 -12.731652 -0.758000 -5.560500 15.514300 1.514028 0.714626 -5.856498 -5.944504 -0.023784 1.991573 3.422902 -10.640479 18.907129 -0.542300 -4.721900 7.523900 -80.451965 -2.038052 30.317606 10.355215 -20.089068 -5.207286 -3.018204 0.150171 0.259873 -7.125000 0.000000 0.000000 89.905840 -2.814838 15.747972 -13.718009 28.787428 -4.294643 -1.464430 -2.275345 27.132495 7.125000 0.000000 0.000000 
-15.355837 17.881183 0.341696 -112.219380 85.627198 -95.984628 -15.502614 -2.821011 -15.155996 0.075512 2.994699 11.013138 -0.001145 1.700430 -7.253378 0.092600 -1.963000 -5.403500 30.820363 11.444963 -11.725356 -0.717594 -3.014852 12.595737 -0.195291 -3.071621 -12.834190 -0.735400 -5.478700 15.279100 1.520155 0.690021 -5.847401 -5.987885 -0.037647 2.001527 3.190475 -10.598996 18.792040 -0.642800 -4.715700 7.447500 -80.452432 -1.998866 30.354298 10.353814 -20.087362 -5.197967 -3.015981 0.157098 0.169918 -7.125000 0.000000 0.000000 89.987391 -2.839788 15.534921 -13.649297 28.722736 -4.264798 -1.482266 -2.239067 27.627781 7.125000 0.000000 0.000000 
-15.357156 17.880473 0.341493 -111.952363 85.621004 -95.797615 -15.493590 -2.799706 -15.092059 0.077258 3.004982 11.040712 -0.004188 1.720028 -7.265131 0.093600 -1.973200 -5.431600 30.790345 11.627296 -11.537188 -0.718247 -3.005843 12.587328 -0.216374 -2.978917 -12.948451 -0.712700 -5.395200 15.039300 1.531407 0.682506 -5.832644 -5.996478 -0.039355 1.981094 2.984916 -10.510452 18.495110 -0.726400 -4.693500 7.286700 -80.496194 -1.983469 30.380864 10.352222 -20.091182 -5.201315 -3.012237 0.160994 0.150591 -7.125000 0.000000 0.000000 90.002656 -2.851576 15.437966 -13.583623 28.662771 -4.248179 -1.495881 -2.218410 27.761224 7.125000 0.000000 0.000000 
-15.358677 17.879155 0.341189 -110.618858 85.594014 -94.529037 -15.465133 -2.720299 -15.067727 0.078936 3.017951 11.059797 -0.001604 1.702755 -7.246264 0.094200 -1.979600 -5.449200 30.797196 11.687548 -11.428351 -0.728861 -3.007728 12.614647 -0.244927 -2.770833 -12.978710 -0.753000 -5.542400 15.462200 1.543563 0.712643 -5.819571 -5.992011 -0.016875 1.961439 3.017451 -10.486236 18.552173 -0.699900 -4.682500 7.317100 -80.541737 -1.966649 30.476699 10.391306 -20.137945 -5.219007 -3.010442 0.154286 0.103520 -7.125000 0.000000 0.000000 89.996752 -2.884041 15.442620 -13.547721 28.638556 -4.248844 -1.503906 -2.214911 27.773607 7.125000 0.000000 0.000000 
-15.359894 17.878749 0.341290 -108.453282 85.538979 -92.368811 -15.399388 -2.655022 -15.084529 0.076034 3.025530 11.047236 -0.001364 1.701437 -7.231671 0.088600 -1.920300 -5.285500 30.890410 11.592690 -11.480454 -0.740118 -3.018056 12.660620 -0.246153 -2.677991 -12.854495 -0.722000 -5.429500 15.137800 1.556887 0.779090 -5.792424 -5.976976 0.031122 2.020297 3.196106 -10.473439 18.811060 -0.604100 -4.667700 7.475700 -80.583443 -2.044896 30.536755 10.383643 -20.128245 -5.213377 -3.012915 0.154814 0.122564 -7.125000 0.000000 0.000000 89.980701 -2.912156 15.442900 -13.520865 28.617430 -4.244364 -1.516183 -2.198061 27.955077 7.125000 0.000000 0.000000 
